/* XPM */
static const char *krompir_64_xpm[] = {
/* columns rows colors chars-per-pixel */
"64 64 220 2 ",
"   c None",
".  c #6E3707",
"X  c #723D0B",
"o  c #4E2728",
"O  c #633B37",
"+  c #6F3C2D",
"@  c #77430F",
"#  c #744214",
"$  c #7B4513",
"%  c #7D4A14",
"&  c #764719",
"*  c #794A25",
"=  c #704239",
"-  c #734A2A",
";  c #151170",
":  c #1C237B",
">  c #28216D",
",  c #3C376C",
"<  c #292775",
"1  c #3A3A79",
"2  c #322A70",
"3  c #573246",
"4  c #462E55",
"5  c #453B67",
"6  c #493E73",
"7  c #5A475A",
"8  c #7C5D42",
"9  c #755849",
"0  c #795C59",
"q  c #6D5350",
"w  c #584669",
"e  c #4C4577",
"r  c #534A74",
"t  c #5A506C",
"y  c #645473",
"u  c #6C5362",
"i  c #7B656E",
"p  c #9B550D",
"a  c #97520F",
"s  c #85551C",
"d  c #8C561A",
"f  c #9E5A14",
"g  c #9C5E18",
"h  c #975513",
"j  c #8B4B18",
"k  c #A25E15",
"l  c #9F621A",
"z  c #A36016",
"x  c #A5641A",
"c  c #A8651C",
"v  c #895C22",
"b  c #885F2C",
"n  c #966C2D",
"m  c #9E722E",
"M  c #85663E",
"N  c #8E6D3D",
"B  c #916F3B",
"V  c #9E7634",
"C  c #9F7835",
"Z  c #957139",
"A  c #9A763D",
"S  c #8E6224",
"D  c #AE6E24",
"F  c #AA7127",
"G  c #B87C2E",
"H  c #B37528",
"J  c #A47B35",
"K  c #A37B39",
"L  c #A87634",
"P  c #B37F31",
"I  c #876941",
"U  c #85664C",
"Y  c #9A7444",
"T  c #987648",
"R  c #886556",
"E  c #977955",
"W  c #927256",
"Q  c #A67D44",
"!  c #AC7F44",
"~  c #8D786D",
"^  c #86716A",
"/  c #AC843B",
"(  c #AC883E",
")  c #A7843C",
"_  c #B3863B",
"`  c #B5893B",
"'  c #BB8D3D",
"]  c #BB923C",
"[  c #C5933E",
"{  c #C1983D",
"}  c #C18839",
"|  c #CBA03F",
" . c #AD8246",
".. c #AD8C42",
"X. c #A68348",
"o. c #BA8B45",
"O. c #B18449",
"+. c #B88A49",
"@. c #B49545",
"#. c #B69847",
"$. c #BD924B",
"%. c #B79848",
"&. c #BD9546",
"*. c #AC855B",
"=. c #BE9153",
"-. c #B28A5E",
";. c #9A8473",
":. c #9D8367",
">. c #A78D6C",
",. c #AD936B",
"<. c #B4996A",
"1. c #C79542",
"2. c #CA9742",
"3. c #CB9944",
"4. c #C49C4A",
"5. c #CB9B4C",
"6. c #C5974B",
"7. c #D19E4B",
"8. c #C89A54",
"9. c #C9A244",
"0. c #D6AB43",
"q. c #D2A14E",
"w. c #D8AD43",
"e. c #DAB047",
"r. c #D5A453",
"t. c #DAA956",
"y. c #DBAA58",
"u. c #D4AA53",
"i. c #E4BC53",
"p. c #E5BF5A",
"a. c #E1B94F",
"s. c #C1A469",
"d. c #E9C258",
"f. c #EFCA62",
"g. c #E8C564",
"h. c #F1CD64",
"j. c #040E8C",
"k. c #030A84",
"l. c #06118D",
"z. c #161D8C",
"x. c #010B99",
"c. c #051393",
"v. c #061A9A",
"b. c #081998",
"n. c #221D83",
"m. c #09239E",
"M. c #152696",
"N. c #1B298A",
"B. c #222A8A",
"V. c #363985",
"C. c #293695",
"Z. c #2C3593",
"A. c #010DA4",
"S. c #0414A4",
"D. c #061BA3",
"F. c #0719AA",
"G. c #091EB0",
"H. c #0B25A3",
"J. c #0C29A3",
"K. c #0B23AC",
"L. c #0A28AC",
"P. c #0E33AC",
"I. c #1134AD",
"U. c #1837A9",
"Y. c #0B29BB",
"T. c #0924B6",
"R. c #123CB3",
"E. c #1035BC",
"W. c #1739B7",
"Q. c #142FAF",
"!. c #2438A7",
"~. c #212DA0",
"^. c #1441B6",
"/. c #1544BB",
"(. c #1B44BC",
"). c #164ABC",
"_. c #184DBF",
"`. c #2641AE",
"'. c #2E46AE",
"]. c #585689",
"[. c #4F4D89",
"{. c #605880",
"}. c #0A2BC7",
"|. c #0E34C3",
" X c #123DC4",
".X c #1139C7",
"XX c #0D36D1",
"oX c #1545C5",
"OX c #174AC2",
"+X c #194DC2",
"@X c #1442CB",
"#X c #164BC9",
"$X c #194DCC",
"%X c #1D43C5",
"&X c #1B55C5",
"*X c #1A54CC",
"=X c #1D5BCB",
"-X c #194DD3",
";X c #1447D5",
":X c #1A54D3",
">X c #1D5CD3",
",X c #1C5ADB",
"<X c #1953DB",
"1X c #2246C4",
"2X c #244AC3",
"3X c #264DC6",
"4X c #2255D3",
"5X c #2650C9",
"6X c #1F61D2",
"7X c #1E61DC",
"8X c #2165D6",
"9X c #2166DB",
"0X c #226ADD",
"qX c #1B59E1",
"wX c #1E63E2",
"eX c #2066E0",
"rX c #236DE2",
"tX c #216DE8",
"yX c #2571E4",
"uX c #2473E9",
/* pixels */
"                                                                                                                                ",
"                                                                                                                                ",
"                                                                                                                                ",
"                                                                                                                                ",
"                                                                                                                                ",
"                                                                                                                                ",
"                                                                                                                                ",
"                                                                                                                                ",
"                                                                                                                                ",
"                                                    p p p p p p p p p p p p p p p p p p p                                       ",
"                                                    p p p p p p p p p p p p p p p p p p p                                       ",
"                                                    p p p p p p p p p p p p p p p p p p p                                       ",
"                                                    g g g g x x x x x x x x z z z z z z z k                                     ",
"                                      p p p p p p p L  . . .5.r.r.r.r.r.r.7.[ [ [ [ [ [ [ D p p p                               ",
"                                      p p p p p p p L O.O.O.r.y.y.y.y.y.y.r.2.2.2.2.2.2.2.D p p p                               ",
"                                      p p p p p p p L O.O.O.r.y.y.y.y.y.y.r.2.2.2.2.2.2.2.D p p p                               ",
"                                    c D D D D D D D _ +.+.+.6.5.5.5.5.5.5.6.' ' ' ' ' ' ' F g g g                               ",
"                              p p p D t.t.t.t.t.t.t.5.2.2.1.K V C C C C C C V V V V V V V V V V V g p p p                       ",
"                              p p p D t.y.y.y.y.y.y.5.2.2.2.J V V V V V V V V V V V V V V V V V V g p p p                       ",
"                              p p p D t.y.y.y.y.y.y.7.2.2.2.J V V V V V V V V V V V V V V V V V V g p p p                       ",
"                            x G G G } q.q.q.5.&.$.&.o.` ` ` ' ' ' ] 4.4.4.4.4.4.4.&.' ' ' ( ( ( ) l p p p                       ",
"                      p p p c r.y.y.r.2.2.2._ V V V V V V J 9.w.0.e.f.h.h.h.h.h.h.d.0.0.0.9.#.#.@.x p p p                       ",
"                      p p p c r.y.y.r.2.2.2._ V V V V V V J 9.0.0.e.f.h.h.h.h.h.h.p.0.0.0.9.@.#.@.x p p p                       ",
"                      p p p c r.y.y.r.2.2.2._ V V V V V V J | 0.0.e.f.h.h.h.h.h.h.p.0.0.0.9.@.#.@.x p p p                       ",
"                      p p p x 3.7.7.1./ / / ' { { { 9.u.u.u.i.d.d.d.h.h.h.d.i.a.i.9.` ` ` / ) ) ) P G G G k p p                 ",
"                      p p p z [ 2.2.' V V V ] 0.0.0.d.h.h.h.f.f.f.h.h.h.f.p.0.0.0.] V V V V V V V ' 2.2.[ k p p a               ",
"          A.A.A.      * * + = R R R 0 q 9 9 U E E E :.>.,.,.;.;.;.s.g.g.,.~ ^ W X.T 8 8 8 8 8 8 9 R R W R = O 3 3               ",
"        }.qXqXXXx.T.Y.~.n.U.%X1X1X1X1XW.z.U.2X3X3X3X5X5X2X~.W.4X5X].<.>.'.:X4XU.Z.'.`.`.`.!.!.~.M.1X2X~.~.(.%X$X-X;XXX}.        ",
"      A.<XuXyX;X;XqXtX<XF.wXuXuXuXuXuX,XS.,XuXuXuXuXuXuXtXY.;XuXtX%XV.Z.@XuXuX|.|.uXuXuXuXuXuX;XF.wXuX@XY.uXuXuXuXuXuX,XS.      ",
"      T.eXyXrXwXyXyXyX XK.rXyX7X<XrXyX-XG.eXyXrX7X,XrXyXeXT.-XyXyXrXE.|.tXyXyX XY.rXyXeX:XeXyX-XS.,XyX:XT.eXyXrX:X7XyXrXY.      ",
"      .XrX0X0X0X0X0X;XK.Q.rX0X|.T.7XrX@XY.0XrX:XZ.Z.:XrX7XG.:XrX0X0X9X9X0X0XrXoXK.9XrX:XF.:XrX,XS.$XrX7XG.:XrX7XF..XrX0X|.      ",
"    x.;X0X0X0X0X9X@XB.2 (.0X9X:X:X0X0XE.E.0X0X+Xi {.:X0X>XF.:X0X0X0X0X0X0X0X0X#XD.>X0X7X*X7X0X>XD. X0X9XK.oX0X9X:X:X0X0X@X      ",
"    S.:X8X8X8X8X:Xb.4 w +X8X8X8X8X8X>XK.E.8X6X(.~ ].*X8X*XD.*X8X8X6X8X8X8X8X8X$Xv.*X8X8X9X8X8X6XL.L.6X8XL.L.8X8X8X9X8X8X#Xx.    ",
"    K.=X6X6X6X6X>XE.> V.*X6X*XOX=X6XE.x.W.6X>X`.~ [.*X8X#Xc.OX8X>XoX>X>X#X=X8X*Xc./.6X6XoX(.(.(.H.m.>X8XW.D.=X6X>XoX$X6X XS.    ",
"    E.=X=X=X=X=X=X*Xb.M.=X=XI.c.+X=XOXc./.=X=XU.r Z.*X=XoXj./.=X=XI.B.Z.M.&X=X*Xb.I.=X=XU.w 0 0 u B.*X=XOXc.OX=X=XD.D.=X=XW.    ",
"  j./.=X&XOX=X=X=X+Xc.J.=X&XM.z.&X=X/.l./.=X&X/.^./.&X=X/.j.R.=X*XC.9 U 1 OX=X&Xv.J.=X=X!.R o.' Q 1 OX=X&Xv.I.=X=XL.j.+X=XOXc.  ",
"  v._.&X+XH.R.&X&XR.k.I.&X+Xz.M.&X&XI.l.).&X&X&X=X=X&X&X^.j.^.&X&XC.*.8.y /.&X&XJ.m.&X&XR.7 V J Z 5 /.&X&Xm.b.&X&XR.k.R.&X&Xv.  ",
"  H.)._.R.k.m.)./.J.; P.).R.< M.^./.J.l.R./././.).).)._.R.l.I.)./.Z.*.r.i U.).).J.b.).+XR.5 Z V Z 7 U.+X&XP.j./.&X^.k.J.&X&XJ.  ",
"  c.v.v.c.  j.> 2 4 3 w e e 0 7 5 5 5 t t r e 1 1 1 < B.< 5 , , , 7 8.y.-.y e [.e 6 V.V.V.q Z V V 8 2 C.C.N.; > : b.k.l.J.J.v.  ",
"              j j j h K Q Q / K A A X.&.&.%...T T T T T T X.X.Q Q  .8.8.8.=.=.=.=.O.Y Y Y A Z Z Z b - = O o o o o               ",
"              p p p f m C V K @.#.#.#.#.#.#.( V V C 6.y.t.t.t.t.t.r.+.O.O.+.2.2.2.' V V V B I I M # . . .                       ",
"              p p p f m V V K @.#.#.#.#.#.#.( V V V 6.y.y.y.y.y.y.r.+.O.O.+.2.2.2.` V V V B I I M # . . .                       ",
"              p p p f m C V K @.#.#.#.#.#.%.( V V V 6.y.y.y.y.y.y.r.+.O.O.+.2.2.2.' V V C B I I I # . . .                       ",
"                    p s s s S @.#.#.@.( ( ( ( ` ` ` 5.y.y.t.q.7.q.5.o.o.o.o._ _ _ L s s s * * * * #                             ",
"                      . . . % @.#.%...V V V _ 2.2.2.r.y.y.t.3.2.2.2.2.2.2.' V V V v . . . . . . .                               ",
"                      . . . % @.#.%...V V V _ 2.2.2.r.y.y.t.3.2.2.2.2.2.2.' C V C v . . . . . . .                               ",
"                      . . . % @.@.@...V V V _ 2.2.2.r.y.y.t.3.2.2.2.2.2.2.' V V V v . . . . . . .                               ",
"                              s s s v N N N Q +.+.+.$.$.$.$._ / / J d d d d % % % $                                             ",
"                              . . . & I I I Y O.O.O.O.O.O. .K V V n X . . . . . . .                                             ",
"                              . . . & I I I Y O.O.O.O.O.O.O.K V C n X . . . . . . .                                             ",
"                              . . . & M M M Y ! ! ! ! ! ! ! V V V n X . . . . . . .                                             ",
"                                      # # # # $ $ $ $ $ $ $ $ @ @ @                                                             ",
"                                      . . . . . . . . . . . . . . .                                                             ",
"                                      . . . . . . . . . . . . . . .                                                             ",
"                                      . . . . . . . . . . . . . . .                                                             ",
"                                                                                                                                ",
"                                                                                                                                ",
"                                                                                                                                ",
"                                                                                                                                ",
"                                                                                                                                ",
"                                                                                                                                ",
"                                                                                                                                ",
"                                                                                                                                ",
"                                                                                                                                "
};
