/* XPM */
static const char* krompir_32_xpm[] = {
    /* columns rows colors chars-per-pixel */
    "32 32 176 2 ",
    "   c None",
    ".  c #6E3606",
    "X  c #6F3807",
    "o  c #6F3708",
    "O  c #6F3808",
    "+  c #723B0A",
    "@  c #633C3D",
    "#  c #784C1F",
    "$  c #7A4F22",
    "%  c #7F572B",
    "&  c #7C5327",
    "*  c #2D2159",
    "=  c #3D2C5E",
    "-  c #1E2478",
    ";  c #363166",
    ":  c #342E7A",
    ">  c #39367E",
    ",  c #4D3F59",
    "<  c #4D3964",
    "1  c #714D45",
    "2  c #6D5C59",
    "3  c #745D54",
    "4  c #725F5F",
    "5  c #7A6459",
    "6  c #4C4777",
    "7  c #534D75",
    "8  c #534E7D",
    "9  c #54567C",
    "0  c #64576A",
    "q  c #6A5A62",
    "w  c #655F7B",
    "e  c #766464",
    "r  c #964F0D",
    "t  c #9B550D",
    "y  c #9E580F",
    "u  c #87581E",
    "i  c #9C5710",
    "p  c #955D1B",
    "a  c #9D641E",
    "s  c #A0671F",
    "d  c #8B5D22",
    "f  c #8C5D2A",
    "g  c #805A30",
    "h  c #8F6225",
    "j  c #8A6029",
    "k  c #9D6A26",
    "l  c #93612B",
    "z  c #956B2A",
    "x  c #986F2F",
    "c  c #926527",
    "v  c #886439",
    "b  c #9D7634",
    "n  c #9F7835",
    "m  c #967239",
    "M  c #9A7539",
    "N  c #A46D2A",
    "B  c #AD6F24",
    "V  c #AA732E",
    "C  c #AB7428",
    "Z  c #B5792C",
    "A  c #B87B2F",
    "S  c #A47B36",
    "D  c #AB7D33",
    "F  c #A77A3B",
    "G  c #BA7F34",
    "H  c #896B43",
    "J  c #876A58",
    "K  c #A57D47",
    "L  c #816C6C",
    "P  c #827160",
    "I  c #AB8236",
    "U  c #A68239",
    "Y  c #AD833A",
    "T  c #AE8A3E",
    "R  c #BD8334",
    "E  c #B3863B",
    "W  c #BD8D3F",
    "Q  c #BE953D",
    "!  c #C38A3C",
    "~  c #C2943E",
    "^  c #C79D3F",
    "/  c #AF8E42",
    "(  c #B58A42",
    ")  c #BB8D43",
    "_  c #B18549",
    "`  c #B5894C",
    "'  c #BA8B48",
    "]  c #B48741",
    "[  c #B59545",
    "{  c #BA9A46",
    "}  c #B79948",
    "|  c #B99B49",
    " . c #A8825D",
    ".. c #BA9E6B",
    "X. c #C08E42",
    "o. c #C49342",
    "O. c #C99442",
    "+. c #CB9944",
    "@. c #CC9C4C",
    "#. c #C69852",
    "$. c #CDA544",
    "%. c #D3AA46",
    "&. c #DCB24A",
    "*. c #D4A453",
    "=. c #DAA956",
    "-. c #DCAB59",
    ";. c #D7AB53",
    ":. c #D9B456",
    ">. c #D6B052",
    ",. c #E3BD5A",
    "<. c #EAC35C",
    "1. c #F2CD63",
    "2. c #071D9A",
    "3. c #1E2B8D",
    "4. c #0A239D",
    "5. c #0E299F",
    "6. c #11279C",
    "7. c #11299C",
    "8. c #031AB0",
    "9. c #0F2FAA",
    "0. c #0F2BA1",
    "q. c #122EA4",
    "w. c #0F31AB",
    "e. c #1335AA",
    "r. c #0E34BB",
    "t. c #1136B3",
    "y. c #123CB1",
    "u. c #1037BB",
    "i. c #123CB9",
    "p. c #2134A1",
    "a. c #3F4884",
    "s. c #2C479F",
    "d. c #1945B3",
    "f. c #1543BD",
    "g. c #1749BD",
    "h. c #1C4DBB",
    "j. c #1742B6",
    "k. c #2C44A4",
    "l. c #2A45AA",
    "z. c #204AB3",
    "x. c #2755BE",
    "c. c #464985",
    "v. c #4F5489",
    "b. c #585787",
    "n. c #454E99",
    "m. c #5B5F90",
    "M. c #625E84",
    "N. c #5C638D",
    "B. c #656D8F",
    "V. c #7D7C8F",
    "C. c #696E99",
    "Z. c #6A749B",
    "A. c #707394",
    "S. c #0E35C6",
    "D. c #123FC8",
    "F. c #1442C5",
    "G. c #174BC3",
    "H. c #174BCA",
    "J. c #1B52C6",
    "K. c #1A53CB",
    "L. c #1C5ACE",
    "P. c #164AD1",
    "I. c #1446D0",
    "U. c #1953D5",
    "Y. c #1D5CD3",
    "T. c #1A57DA",
    "R. c #1B5ADB",
    "E. c #2157C7",
    "W. c #245DCD",
    "Q. c #1E62DD",
    "!. c #1F61D3",
    "~. c #2162D4",
    "^. c #2162DA",
    "/. c #226BDD",
    "(. c #1E63E2",
    "). c #206AE5",
    /* pixels */
    "                                                                ",
    "                                                                ",
    "                                                                ",
    "                                                                ",
    "                                                                ",
    "                          t t t t t t t t t t                   ",
    "                    t t i N V G R R R Z Z Z B y                 ",
    "                  t t t i F ` *.-.-.=.+.+.+.R y t               ",
    "                t A ! ! ! X.) ( ( ( ( Y Y Y D k a t             ",
    "              y y ! -.-.=.+.o.S b b b n b b b n k t t           ",
    "            t Z O.+.@.) E Y Y ~ +.>.:.:.>.^ Q / V t t           ",
    "            t R -.@.o.I n S S $.&.1.1.1.<.%.$.} D y y           ",
    "            t Z +.E S Q ^ >.:.,.<.1.<.&.$.I I S D R B r         ",
    "    S.S.8.> < v.m.v.6 N.B.Z.A.C.V...A.N.w 9 9 7 8 b.8 c.k.r.    ",
    "    Q.(.R.U.F.(.(.T.D.).Q.).I.T.^.l.^.U.P.).Q.U.D.T.P.).Q.Q.    ",
    "  r././.Y.p.J.Y.U.K.H.W.n.~.F.Y./.Q./.U.F.Q.K.Y.u.Y.F.Q.H.^.r.  ",
    "  f.~.~.j.: E.L.Y.u.G.x.M.W.u.K.Y.L.Y.K.t.!.E.x.w.L.t.L.L.L.r.  ",
    "  g.K.L.G.6.J.q.J.9.g.h.k.J.w.g.z.6 l.J.9.K.c.J 7 J.t.g.i.t.G.  ",
    "2.f.w.y.y.6.d.3.d.7.d.h.g.g.5.y.s. .v.g.0.g.a.b 3 d.y.q.j.4.g.4.",
    "      = @ 1 5 5 2 5 P e q 0 q 4 J #. .L e 0 3 m v , ; * -   4.  ",
    "        t s S T [ { { U S @.=.=.*.` ' +.~ S M H % + o           ",
    "        y p h U } [ / Y Y *.-.*.*.' ' W E c j g $ .             ",
    "            . z | U n W +.*.=.+.O.+.o.S z + X O O               ",
    "            . d b m m ] o.@.#.) E V N h u + . .                 ",
    "              . . % H K _ _ _ S x + . . .                       ",
    "                . # & f l l l d u + . .                         ",
    "                  . . . . . . . .                               ",
    "                                                                ",
    "                                                                ",
    "                                                                ",
    "                                                                ",
    "                                                                ",
};
