/* XPM */
static const char* krompir_16_xpm[] = {
    /* columns rows colors chars-per-pixel */
    "16 16 117 2 ",
    "   c None",
    ".  c #703909",
    "X  c #703A09",
    "o  c #713A09",
    "O  c #713B09",
    "+  c #703A0A",
    "@  c #76481C",
    "#  c #78491B",
    "$  c #433D78",
    "%  c #6D565F",
    "&  c #795B55",
    "*  c #7A6454",
    "=  c #5D5260",
    "-  c #434073",
    ";  c #4D4F7A",
    ":  c #4C527F",
    ">  c #7A6B61",
    ",  c #7E6860",
    "<  c #7F6F65",
    "1  c #6C667D",
    "2  c #9D580F",
    "3  c #825119",
    "4  c #85541B",
    "5  c #86561B",
    "6  c #9D5710",
    "7  c #975917",
    "8  c #9E5810",
    "9  c #9F5911",
    "0  c #9C5F19",
    "q  c #AA6B1F",
    "w  c #B06E1F",
    "e  c #886130",
    "r  c #8D6332",
    "t  c #9A6C30",
    "y  c #9F7733",
    "u  c #A76D20",
    "i  c #A56825",
    "p  c #A2722E",
    "a  c #B27328",
    "s  c #A47730",
    "d  c #A07037",
    "f  c #A57835",
    "g  c #A07C37",
    "h  c #816F6D",
    "j  c #86746D",
    "k  c #8B7C68",
    "l  c #AD833A",
    "z  c #AA813D",
    "x  c #AC883E",
    "c  c #BA8232",
    "v  c #B1863A",
    "b  c #B0873E",
    "n  c #B8833C",
    "m  c #B1883F",
    "M  c #B9883A",
    "N  c #B9943E",
    "B  c #BF943C",
    "V  c #C08839",
    "C  c #B98C41",
    "Z  c #B98D45",
    "A  c #BD8E45",
    "S  c #B39345",
    "D  c #908674",
    "F  c #9B8F7C",
    "G  c #A49578",
    "H  c #B7A375",
    "J  c #C39341",
    "K  c #C69041",
    "L  c #C59143",
    "P  c #C99343",
    "I  c #CE9843",
    "U  c #C5964D",
    "Y  c #C9994B",
    "T  c #CB9B4C",
    "R  c #D2A946",
    "E  c #D9B14C",
    "W  c #D3A354",
    "Q  c #E2BB57",
    "!  c #112E9E",
    "~  c #1F3798",
    "^  c #21338C",
    "/  c #0C2EA8",
    "(  c #0E30A8",
    ")  c #1B3FAF",
    "_  c #113AB6",
    "`  c #133EB8",
    "'  c #1E4BBB",
    "]  c #1948BC",
    "[  c #1F4FBD",
    "{  c #2A4BAA",
    "}  c #2B51B3",
    "|  c #2A55B6",
    " . c #495086",
    ".. c #475088",
    "X. c #45558D",
    "o. c #4C5A88",
    "O. c #40569C",
    "+. c #1244C0",
    "@. c #1344C0",
    "#. c #1547C0",
    "$. c #1447C2",
    "%. c #174BC2",
    "&. c #1E4CC4",
    "*. c #1849C8",
    "=. c #1E52CB",
    "-. c #1B54CF",
    ";. c #1D54CD",
    ":. c #1D54CF",
    ">. c #1C59CC",
    ",. c #1C53D0",
    "<. c #1C54D1",
    "1. c #1D5AD5",
    "2. c #1D5EDA",
    "3. c #2C5DC7",
    "4. c #2153C9",
    "5. c #2058CF",
    "6. c #2960CE",
    /* pixels */
    "                                ",
    "                                ",
    "              6 9 9 2           ",
    "          9 i n L V c q         ",
    "        a P L C m b l s 0       ",
    "      w I J v B E Q R N u       ",
    "    $ & j < D F H G k > , %     ",
    "  2.&.=.<.4.3.,.6.5.:.-.*.:.1.  ",
    "` >.) ] @.' } @.| [ #.O.{ #.%._ ",
    "/ ~ - ; : o.X. .h 1 ..* = ^ ! ( ",
    "    7 y S x Z W U A f e @       ",
    "      5 g z Y T M p 3 .         ",
    "        # r d t 5 .             ",
    "          . . .                 ",
    "                                ",
    "                                ",
};
