/* XPM */
static const char* krompir_8_xpm[] = {
    /* columns rows colors chars-per-pixel */
    "8 8 30 1 ",
    "  c None",
    ". c #A1661F",
    "X c #845421",
    "o c #885C29",
    "O c #915F25",
    "+ c #8C602B",
    "@ c #AA6D23",
    "# c #AD7029",
    "$ c #B1762C",
    "% c #A07D40",
    "& c #AE803E",
    "* c #BC8639",
    "= c #B5893A",
    "- c #BD8F41",
    "; c #B98E4C",
    ": c #C89E48",
    "> c #123DB5",
    ", c #324995",
    "< c #364B97",
    "1 c #3E539D",
    "2 c #3A549E",
    "3 c #3E569F",
    "4 c #1E44AF",
    "5 c #47568E",
    "6 c #465798",
    "7 c #4B5E9B",
    "8 c #566596",
    "9 c #566896",
    "0 c #5E709C",
    "q c #697BA0",
    /* pixels */
    "        ",
    "   #$@  ",
    "  *-:=. ",
    " 180q96 ",
    "4<2375,>",
    " +%;&o  ",
    "  XO    ",
    "        ",
};
